<svg width="40" height="40" viewBox="0 0 40 40" fill="none" xmlns="http://www.w3.org/2000/svg">
<path d="M40 0H0V40H40V0Z" fill="#F38F00"/>
<path d="M17.257 6.74268C15.4285 6.74268 12.457 7.42839 12.457 12.2284V16.5712C12.457 21.3712 15.5427 22.057 17.257 22.057C19.0856 22.057 22.057 21.3712 22.057 16.5712V12.2284C22.057 7.42839 19.0856 6.74268 17.257 6.74268ZM20.2285 16.457C20.2285 19.657 18.6285 19.9998 17.257 19.9998C15.8856 19.9998 14.2856 19.5427 14.2856 16.457V12.1141C14.2856 8.9141 15.8856 8.57125 17.257 8.57125C18.6285 8.57125 20.2285 9.02839 20.2285 12.1141V16.457Z" fill="white"/>
<path d="M9.60008 31.4287H7.65723V33.3716H9.60008V31.4287Z" fill="white"/>
<path d="M5.71415 6.74268L4.57129 8.57125H7.657V21.9427H9.48557V6.74268H5.71415Z" fill="white"/>
<path d="M30.5146 23.7715V24.6858C29.7146 24.1143 28.686 23.7715 27.6574 23.7715C25.0289 23.7715 22.8574 25.9429 22.8574 28.5715C22.8574 31.2001 25.0289 33.3715 27.6574 33.3715C28.686 33.3715 29.7146 33.0286 30.5146 32.4572V33.3715H32.4574V23.8858H30.5146V23.7715ZM27.6574 31.4286C26.0574 31.4286 24.8003 30.1715 24.8003 28.5715C24.8003 26.9715 26.0574 25.7143 27.6574 25.7143C29.2574 25.7143 30.5146 26.9715 30.5146 28.5715C30.4003 30.1715 29.1431 31.4286 27.6574 31.4286Z" fill="white"/>
<path d="M19.0856 23.7715V28.5715C19.0856 30.1715 17.8285 31.4286 16.2285 31.4286C14.6285 31.4286 13.3713 30.1715 13.3713 28.5715V23.7715H11.4285V28.5715C11.4285 31.2001 13.5999 33.3715 16.2285 33.3715C17.257 33.3715 18.2856 33.0286 19.0856 32.4572V33.3715H21.0285V23.8858H19.0856V23.7715Z" fill="white"/>
<path d="M32.3432 17.1427V6.74268H29.8289L23.7717 17.1427V19.0855H30.4003V21.9427H32.3432V19.0855L33.486 17.1427H32.3432ZM30.5146 17.1427H26.0574L30.5146 9.37125V17.1427Z" fill="white"/>
</svg>
