<svg width="89" height="19" viewBox="0 0 89 19" fill="none" xmlns="http://www.w3.org/2000/svg">
<path d="M58.9206 6.09173L62.6411 0H60.0061L56.9039 5.07645H53.959V0H51.4783V12.0382H53.9575V7.10702H57.0597L60.0061 12.0382H62.6411L58.9206 6.09173ZM82.6431 12.3287V2.46631H78.6112V0.290485H89V2.46631H85.1239V12.3287H82.6431ZM24.4995 12.7644C20.4676 12.7644 17.5212 10.0076 17.5212 6.38222C17.5212 3.33635 20.002 0.145244 24.3438 0.145244C26.2032 0.145244 27.6001 0.724802 28.8397 1.74009V0.435728H31.1663V12.474H28.8397V11.1682C27.7543 12.1835 26.2048 12.7644 24.4995 12.7644ZM24.4995 2.32106C23.3052 2.32293 22.1606 2.76706 21.3172 3.55584C20.4739 4.34461 20.0008 5.41346 20.002 6.52746C20.0012 7.64121 20.4745 8.70971 21.3178 9.49817C22.1611 10.2866 23.3055 10.7306 24.4995 10.7324C26.9788 10.7324 28.8397 8.99236 28.8397 6.6713C28.8397 4.06116 26.9803 2.32106 24.4995 2.32106ZM37.2134 11.0229V19H34.8883V0.290485H37.2134V1.74009C38.2988 0.724802 39.8498 0.145244 41.7093 0.145244C46.2068 0.145244 48.5319 3.33635 48.5319 6.38222C48.5319 10.0076 45.587 12.7644 41.5551 12.7644C40.004 12.7644 38.453 12.1835 37.2134 11.0229ZM37.2134 6.52746C37.2134 8.84711 39.0728 10.5886 41.5551 10.5886C42.7491 10.5864 43.8934 10.1421 44.7364 9.35334C45.5794 8.56461 46.0523 7.49597 46.0511 6.38222C46.0523 5.26846 45.5794 4.19982 44.7364 3.41109C43.8934 2.62236 42.7491 2.17806 41.5551 2.17582C39.2285 2.32106 37.2134 4.06115 37.2134 6.52746ZM77.5258 6.81654V6.38222C77.5258 2.75538 74.7366 0 71.0147 0C67.1385 0 64.502 2.61014 64.502 6.38222C64.502 10.0076 67.4499 12.763 71.3246 12.763C73.8054 12.763 75.9762 11.6039 77.0617 9.8624L75.0465 8.55804C74.271 10.0076 72.7199 10.7324 71.1704 10.7324C69.1537 10.7324 66.9828 9.57333 66.8286 6.96178H77.5273L77.5258 6.81654ZM70.8589 2.17582C71.7175 2.17524 72.5543 2.42717 73.2505 2.89577C73.9466 3.36437 74.4667 4.02579 74.7366 4.78596H66.9828C67.7583 3.04587 69.3094 2.17582 70.8589 2.17582ZM11.4742 0.290485L7.28666 9.71716L3.10212 0.290485H0V12.3287H2.48079V4.2064L6.04853 12.3287H8.37361L12.094 4.2064V12.3287H14.5748V0.290485H11.4742Z" fill="#0D0D0D"/>
</svg>
