<svg width="21" height="21" viewBox="0 0 21 21" fill="none" xmlns="http://www.w3.org/2000/svg">
<path fill-rule="evenodd" clip-rule="evenodd" d="M10 2.33333C10.5523 2.33333 11 2.78104 11 3.33333V16.6667C11 17.2189 10.5523 17.6667 10 17.6667C9.44772 17.6667 9 17.2189 9 16.6667V3.33333C9 2.78104 9.44772 2.33333 10 2.33333ZM15 7.33333C15.5523 7.33333 16 7.78104 16 8.33333V16.6667C16 17.2189 15.5523 17.6667 15 17.6667C14.4477 17.6667 14 17.2189 14 16.6667V8.33333C14 7.78104 14.4477 7.33333 15 7.33333ZM6 11.6667C6 11.1144 5.55228 10.6667 5 10.6667C4.44772 10.6667 4 11.1144 4 11.6667V16.6667C4 17.2189 4.44772 17.6667 5 17.6667C5.55228 17.6667 6 17.2189 6 16.6667V11.6667Z" fill="#A8ADB1"/>
<mask id="path-2-outside-1_122_6314" maskUnits="userSpaceOnUse" x="12" y="12" width="9" height="9" fill="black">
<rect fill="white" x="12" y="12" width="9" height="9"/>
<path fill-rule="evenodd" clip-rule="evenodd" d="M16.5 13C15.9477 13 15.5 13.4477 15.5 14V15.5H14C13.4477 15.5 13 15.9477 13 16.5C13 17.0523 13.4477 17.5 14 17.5H15.5V19C15.5 19.5523 15.9477 20 16.5 20C17.0523 20 17.5 19.5523 17.5 19V17.5H19C19.5523 17.5 20 17.0523 20 16.5C20 15.9477 19.5523 15.5 19 15.5H17.5V14C17.5 13.4477 17.0523 13 16.5 13Z"/>
</mask>
<path fill-rule="evenodd" clip-rule="evenodd" d="M16.5 13C15.9477 13 15.5 13.4477 15.5 14V15.5H14C13.4477 15.5 13 15.9477 13 16.5C13 17.0523 13.4477 17.5 14 17.5H15.5V19C15.5 19.5523 15.9477 20 16.5 20C17.0523 20 17.5 19.5523 17.5 19V17.5H19C19.5523 17.5 20 17.0523 20 16.5C20 15.9477 19.5523 15.5 19 15.5H17.5V14C17.5 13.4477 17.0523 13 16.5 13Z" fill="#A8ADB1"/>
<path d="M15.5 15.5V16.5H16.5V15.5H15.5ZM15.5 17.5H16.5V16.5H15.5V17.5ZM17.5 17.5V16.5H16.5V17.5H17.5ZM17.5 15.5H16.5V16.5H17.5V15.5ZM16.5 14V14V12C15.3954 12 14.5 12.8954 14.5 14H16.5ZM16.5 15.5V14H14.5V15.5H16.5ZM14 16.5H15.5V14.5H14V16.5ZM14 16.5V14.5C12.8954 14.5 12 15.3954 12 16.5H14ZM14 16.5L14 16.5H12C12 17.6046 12.8954 18.5 14 18.5V16.5ZM15.5 16.5H14V18.5H15.5V16.5ZM16.5 19V17.5H14.5V19H16.5ZM16.5 19H14.5C14.5 20.1046 15.3954 21 16.5 21V19ZM16.5 19V21C17.6046 21 18.5 20.1046 18.5 19H16.5ZM16.5 17.5V19H18.5V17.5H16.5ZM19 16.5H17.5V18.5H19V16.5ZM19 16.5V18.5C20.1046 18.5 21 17.6046 21 16.5H19ZM19 16.5H21C21 15.3954 20.1046 14.5 19 14.5V16.5ZM17.5 16.5H19V14.5H17.5V16.5ZM16.5 14V15.5H18.5V14H16.5ZM16.5 14H18.5C18.5 12.8954 17.6046 12 16.5 12V14Z" fill="white" mask="url(#path-2-outside-1_122_6314)"/>
</svg>
